<?xml version="1.0" encoding="UTF-8"?>
<svg id="Layer_1" xmlns="http://www.w3.org/2000/svg" version="1.1" viewBox="0 0 944.4 540">
  <!-- Generator: Adobe Illustrator 29.2.1, SVG Export Plug-In . SVG Version: 2.1.0 Build 116)  -->
  <defs>
    <style>
      .st0 {
        fill: #6db3de;
      }

      .st1 {
        fill: #54a4d6;
      }

      .st2 {
        fill: #409bd3;
      }

      .st3 {
        fill: #6aafda;
      }

      .st4 {
        fill: #73b2d9;
      }

      .st5 {
        fill: #0c2a3b;
      }

      .st6 {
        fill: #0e2d3f;
      }

      .st7 {
        fill: #0b293b;
      }

      .st8 {
        fill: #0b2839;
      }

      .st9 {
        fill: #0b293a;
      }

      .st10 {
        fill: #75b3db;
      }

      .st11 {
        fill: #0e2c3d;
      }

      .st12 {
        fill: #82bde2;
      }

      .st13 {
        fill: #57a7d8;
      }

      .st14 {
        fill: #4da3d9;
      }

      .st15 {
        fill: #4da4d9;
      }

      .st16 {
        fill: #80bde4;
      }

      .st17 {
        fill: #0f2f41;
      }

      .st18 {
        fill: #15394e;
      }

      .st19 {
        fill: #0b283a;
      }

      .st20 {
        fill: #0d2c3f;
      }

      .st21 {
        fill: #0c293a;
      }

      .st22 {
        fill: #73b8e2;
      }

      .st23 {
        fill: #78b8e0;
      }

      .st24 {
        fill: #469fd6;
      }

      .st25 {
        fill: #61acdb;
      }

      .st26 {
        fill: #56a4d4;
      }
    </style>
  </defs>
  <path class="st25" d="M306.5,240.2c1.2,4.5,2.5,9,3.9,14.3,6.9-7.5,13.2-14.5,19.6-21.5,8-8.8,16-17.8,24.1-26.5,1.6-1.7,3.3-5.3,6.1-2.5,2.5,2.5.9,5.3-1.3,7.7-12.9,14.1-25.8,28.3-38.6,42.5-1.5,1.7-2.9,3.4-4.8,5.7,1.8.9,3,1.6,4.4,2.1,17.5,6.6,35,13.2,52.5,19.6,1.8.7,4.3.8,6.1.2,12.1-4.3,24.2-8.7,36.2-13.4,1.5-.6,3.1-2.5,3.4-4,1.2-6.2,4.3-10.2,9.4-10.9,4.8-.6,9.3,2.2,11.1,7,2.2,5.8.7,12.5-4.2,15.1-3.4,1.8-4.1,4.1-4.6,7.5-1.2,8.8-3,17.5-4.8,26.7-2,.6-3.6.8-5.2.5.9-5.2,1.6-10,2.5-14.9-.5-.1-.9-.2-1.3-.4-1.9,5.3-3.8,10.6-6,15.9-1.6-1.2-2.8-2.4-4-3.9,3.9-10.9,7.8-21.5,12-33.1-2.7.7-3.9,1-5,1.4-9.2,3.4-18.3,6.8-27.5,10.2-3.7,1.4-8.7,2-10.6,4.7-1.9,2.7-.6,7.6-1,11.7,0,1.3.2,2.4.6,3.8.2,2.9.2,5.4-.1,7.9-1.8,0-3.3,0-4.8-.4-.5-5-.9-9.5-1.3-14.1-.4-.1-.7-.2-1.1-.3-2.8,4.4-5.5,8.8-8.6,13.1-1.5-1.5-2.7-2.9-3.8-4.6,3.5-6.1,6.9-11.9,10.7-18.1-19.6-7.4-38.7-14.7-58.4-22.1,0,2.6,0,4.2,0,5.9.2,11.1.5,22.3.4,33.5-1.8-.3-3.3-.6-4.9-1.3-.4-8.1-.6-15.8-.9-23.7-.1-.4-.2-.7-.3-.9-.2.3-.4.6-.6,1.3-2.9,9.1-5.8,17.9-9,26.6-1.9-.7-3.4-1.4-4.9-2.4,3.1-10.6,6.3-20.9,9.4-31.1-1.8.5-3,1.4-4.1,2.4-12.8,11.5-25.7,23-38.8,34.6-1.6-1.6-2.9-3.2-4.1-5,.2-.4.5-.5,1.1-.6.8-.6,1.2-1.2,1.8-2,13.3-12.4,26.5-24.5,39.6-36.5-2.1-1-3.5-1.1-4.9-1-46.9,2.4-93.9,4.9-140.8,7.3-2.6.1-3.7,1-4.5,3.5-.7,2.1-2.1,4.3-3.7,5.6-2.7,2.3-2.7,4.7-1.8,7.6,1.5,4.9,2.9,9.8,3.9,14.7-2.3-.9-4.2-1.8-6.2-3-.8-2.9-1.4-5.4-1.9-8.1-.1-.6-.5-1.2-.9-2-.6-3.4-2.3-4.5-5.4-5.4-3.3-.9-7.2-3-8.8-5.7-2.5-4.4-5.3-6-10.3-5.5-3.1,0-5.9.3-9.1.7-3.8.2-7.3.3-11.1.2-3.1,0-5.9.3-9.2.6-3.8.2-7.3.3-11.1.3-3.4,0-6.6.3-10.1.7-3.8.2-7.3.3-11,.2-2.8,0-5.3.3-8.2.6-4.3.3-8.2.4-12.3.7-.2.7-.1,1.3,0,2.2,1.6,3.8,3,7.2,4.4,10.9.4.7.9,1.2,1.5,1.9,1,2.2,1.8,4,2.2,6.1-2,.4-3.8.7-5.7.7-1.3-2.7-2.5-5.1-3.6-7.8-.5-.6-.9-1-1.4-1.4.1.7.2,1.3.4,2.4,0,1.4,0,2.4-.2,3.6-.6,3-2.2,3.8-4.9,3-.4-6.7-.6-12.9-1.1-19.2-1-13.1-2.2-26.1-2.9-39.2,1.8,0,3.2,0,4.7.3.7,5.4,1.2,10.4,1.8,15.5.3,0,.7,0,1,.1,1.9-5.4,3.8-10.7,6-16,1.9.4,3.4.7,4.9,1.4-2.7,9.2-5.4,18-8.2,27,1.4.3,2,.6,2.5.5,28.3-1.2,56.6-2.5,84.9-3.8,1,0,2.5-.7,3-1.5,2.9-5.3,6-10.7,1-16.5-.7-.9-.9-2.2-.9-3.4,2.1-.4,3.8-.7,5.7-.9,1.3,2.4,2.1,4.8,3.5,6.8.8,1.1,2.4,2.3,3.7,2.4.8,0,2.2-1.8,2.6-2.9,1.5-5.4,2.8-10.9,4.4-16.2,1.9.4,3.4.6,5,1.2-.6,2.9-1,5.4-1.7,8-1.5,5.9-4.1,12.1,2.9,16.5.4.2.6.7.7,1.2.9,3.7,3.5,3.8,6.7,3.7,44.1-2.3,88.3-4.6,132.4-6.9,3.7-.2,7.4-.6,11.1-.9l.2-1.1c-5.4-4.2-10.7-8.3-15.9-12.8,1.3-1.9,2.4-3.6,3.8-5.2,6.4,4.4,12.4,8.8,19.6,13.9-.9-4.8-1.5-8-1.7-11.3,1.8-.6,3.3-1.2,4.8-1.8h0Z"/>
  <path class="st22" d="M599.2,254.2c-6.9,14.6-13.7,28.8-20.3,43.2-1.4,3-3.1,3.8-6.4,4.4-10.8,1.7-16.4-2.5-20.2-12.7-4.3-11.9-10.6-23.1-16-34.6-.6-1.3-1.4-2.6-3.1-3.7v50.6h-15.6v-86.9c5.2,0,10.4-.2,15.5.2,1.3.1,2.8,2.1,3.5,3.5,9.6,20.1,19,40.2,28.5,60.2.7,1.5,1.5,2.9,2.7,5.1,1.2-2.4,2.1-3.9,2.8-5.5,9.4-20,18.9-39.9,28.1-59.9,1.3-2.8,2.7-4,5.8-3.8,4.4.3,8.8,0,13.5,0v86.9h-15.3v-51.1c-.4-.1-.8-.2-1.1-.4-.7,1.4-1.5,2.7-2.4,4.4h0Z"/>
  <path class="st23" d="M292.2,176.8c.2.7.4,1.4.1,2.4-2,.4-3.5.4-5.2,0-2.2-9.4-4.4-18.4-6.3-27.4-.6-2.8-1.5-4.2-4.7-5.1-3.3-.9-7-3.1-8.9-5.8-2.3-3.2-4.5-3.3-7.7-2.7-28.4,5.2-56.9,10.3-85.3,15.5-1.2.2-2.4.7-4.5,1.2,3.3,2.7,5.8,4.9,8.4,6.9,7.2,5.3,14.5,10.6,21.6,16.1-2.4,4.4-5.7,1.4-8.8,1.6-1.5-1-2.7-2-3.9-3.2-.8-.6-1.4-1-2.3-1.4-.6-.4-.9-.7-1.4-1.4-.8-.6-1.5-1-2.4-1.5-6.4-4.6-12.6-8.9-19.7-13.9-1.7,7.7-3.2,14.5-5.1,21.3-1.8-.6-3.3-1.2-4.8-2.1,0-.7.2-1.1.5-1.6.3-.6.3-1.2.4-2.2,1-5.1,2.2-9.9,2.9-14.6.2-1.3-.7-2.8-1.2-4.3-.6-.1-1.2-.1-2.1,0-1-.2-1.7-.4-2.5-.8-.9-.2-1.8-.2-3-.2-1.4-.2-2.4-.5-3.4-.9-.6-.1-1.1-.1-2.1,0-1.1-.2-1.8-.4-2.5-.8-.6-.1-1.2-.1-2.1,0-1.4-.2-2.3-.5-3.4-.9-.6-.1-1.2-.1-2.1,0-2.9-.5-5.4-1-8-1.8-.6-.1-1.2-.1-2.1,0-14.7-2.5-29-5-44.4-7.7,1.3,2.9,2,4.5,2.8,6.1,5.2,11.4,10.3,22.8,15.4,34.6-1.7,1-3.3,1.5-5.1,1.9-.4-.8-.6-1.4-.7-2.4-.7-1.6-1.4-2.8-2.4-4.2-5.5-11.5-10.8-22.8-16.1-34-.4,0-.8,0-1.2,0-4.4,13.6-8.9,27.1-13.6,40.6-1.9-.3-3.5-.6-5-1.2,2.8-9.2,5.5-18.1,8.2-26.9-.3-.1-.6-.3-.9-.4-6.1,7.1-12.2,14.2-18.6,21.3-1.7-1.3-3.1-2.6-4.4-4.1,5.4-6.3,10.8-12.2,16-18.4,11.5-13.8,23-27.6,34.9-41.3,2.4.5,4.3.9,6.2,1.7-1.9,2.6-3.7,5-5.4,7.3.3.3.5.7.8,1,7.9-4.1,15.9-8.2,23.9-12,1.7,1.8,3.4,3.2,4.9,4.8-10.9,6.1-21.6,12-33.3,18.5,2.2.6,3.1.9,3.9,1.1,22.6,4.1,45.2,8.1,67.7,12.2,3.4.6,5.2-.2,7-3.1,7.2-11.1,14.8-22.1,22.2-32.8,1.6,1.4,3.1,2.4,4.6,3.8-6.7,10.3-13.2,20.3-20.2,31,2,0,3.1.2,4.1,0,29.4-5.3,58.9-10.7,88.3-16.1,1.1-.2,3.1-.7,3.2-1.3.6-4.9,5.6-9.6,1.4-14.8,2.5,0,4.8.2,5.2-2.8,1.7.8,3.6,2.4,5.2,2.2,8-1.2,14.5,1.5,17.8,7.9,3.7,7.3,2.4,16.9-3.7,21.7-3.2,2.5-3.3,4.8-2.5,8.1,1.2,4.9,2.3,9.8,3.2,15.2,0,1,.3,1.5.5,2.1.5,1.9,1,3.8,1.3,6.2,0,1,.4,1.5.6,2.1M85.6,122.8c0,0-.2.2-.3.2,0,0,.2.2.2.2s.2-.1,0-.5Z"/>
  <path class="st15" d="M72.1,420.4c-16.5-14.5-29.8-31.4-40.8-50.3-1.9-3.3-3.5-6.8-5.1-10.8,2.2-1.8,4.3-3,6.7-4.1,12.1,10.2,23.9,20.3,35.7,30.4.3-.2.6-.5.9-.7-4-9-7.9-18-11.5-27.1,2.1-.3,3.8-.6,5.8-.6,5.7,12,11.1,23.8,16.5,35.6,1.1,2.3,2.2,3.6,5.1,3.5,13-.7,25.9-1.2,38.9-1.8,7.1-.3,14.2-.7,21.5-1.1.3-8,1.6-15.2,8-20.1,3-2.3,3.7-4.4,2.3-7.7-.4-1-.5-2.1-.3-3.1,2.1,0,3.8,0,5.6.3.6,4.2,2.6,6.2,6.8,5.9,1.6-.1,3.7,0,4.9.9,7.1,5.8,11.7,1.4,16.2-3.6.4-.4,1-.7,1.6-.7,1,2.2,2,4,2.8,6-1.7,1.7-3.1,3.4-4.9,4.6-2.9,2.1-3.4,4.3-2.3,7.8,1.8,5.8,1.6,11.9-1.2,17.4-1.3,2.6-1.2,4.3.8,6.5,6.3,6.6,12.5,13.3,18.6,20.3-2.6.5-5,.7-7.7.7-6.2-6.4-12.2-12.6-18.1-18.7-2.9,1-6,1.8-8.9,3.1-1.3.6-2.9,2.1-3.1,3.4-1,4.7-1.5,9.5-2.5,14.2-1.8-.6-3.2-1.2-4.7-2.2.1-1.6.2-2.9.6-4.3.2-.6.2-1.2.2-2.2.3-3.4.5-6.4.7-8.2-4.1-3.6-7.9-6.2-10.7-9.6-1.9-2.3-3.6-3.2-6.4-3-14.8.8-29.6,1.5-44.4,2.2-2.6.1-5.2.5-8.9.8,1.8,1.9,2.7,3.1,3.8,4,7.4,6.1,14.8,12.2,22.1,18.7-1.7,1.5-3.3,2.7-5.2,3.7-8.8-7.2-17.5-14.1-25.9-21.3-12.2-10.2-24.2-20.6-36.4-30.8-2-1.6-4.2-3-6.2-4.5-.3.4-.5.7-.8,1.1,9.6,14.5,20.9,27.6,33.4,39.8,4.4,4.3,9.6,8,14.4,12.2-1.1,4.5-4.2,2.7-6.7,2.7-.4-.2-.9-.5-1.5-1.3-1.1-1.2-2.1-1.8-3-2.5-1.1-.8-2.1-1.6-3.4-3-1.1-1.2-2-1.9-3-2.6h0Z"/>
  <path class="st22" d="M711.3,214.8c8.8,2.4,12.6,7.4,12.6,16,0,18.2,0,36.4,0,54.7,0,10-6.1,16-16,16.1-12.7,0-25.4,0-38.1,0-11.2,0-16.9-5.6-17.1-16.9-.2-11,0-22,0-33.1s0-13.2,0-19.8c.1-11.5,6-17.3,17.3-17.3,13.6,0,27.2.1,41.3.3M668.5,262.6v23.1h39.6v-55.4h-39.6v32.3Z"/>
  <path class="st22" d="M929,273.2c0,4.6.1,8.7,0,12.9-.4,9.9-6.3,15.5-16.1,15.5-15.9,0-31.8,0-47.8,0h-4.3v-15.4h52.1v-20.4h-28.4c-3.8,0-7.7,0-11.5,0-8.4-.2-14.6-5.9-14.9-14.3-.3-7.5-.2-15,0-22.5.2-7.9,6-14.2,14-14.3,17.1-.3,34.3-.2,51.4,0,1,0,2.9,1.4,3,2.3.3,4.2.1,8.5.1,13.1h-52.6v20.3h19.1c6.1,0,12.2,0,18.4,0,11.7,0,17.5,5.8,17.6,17.5,0,1.7,0,3.4,0,5.5h0Z"/>
  <path class="st2" d="M159.5,428.7c1.5.6,2.9,1.2,4.7,2.2-.8,8.9-1.6,17.4-3,25.9-.7,4.2.8,5.6,4.6,6.6,21.1,5.1,42.6,7,64.3,5.8.9,0,1.9-.5,3.6-.9-3.1-3.3-5.6-6.1-8.2-8.9-9.5-10.2-19-20.4-28.5-30.6,2.4-.2,4.9-.3,7.7-.7,12.1,12.1,23.9,24.4,36.1,37.3,3.8-11.6,7.3-22.4,11.2-33,1.9.5,3.5.8,5,1.4-2,7-4,13.7-6,20.3.4.1.8.3,1.1.5,8.5-9.6,17-19.3,25.6-28.6.2,3.5,2.4,3.8,4.7,4-2,2.5-3.9,4.7-5.7,6.9-5,6-10,12.1-15.1,18.3.1.2.5.4,1.1.4,7.7-4.1,15.1-8.1,22.6-11.8,1.4,1.9,2.7,3.5,3.8,5.3-7.2,4.4-14.3,8.6-21.4,12.7.2.5.4.9.6,1.4,2.9-.8,5.9-1.3,8.7-2.4,14.4-6,28.7-12.1,43.1-17.8,2.3,1.4,4.5,2.4,6.7,3.5-8,4.4-15.8,9.4-24.1,13-60.8,25.6-121.3,24.6-180.7-4.3-13.8-6.7-26.1-16.4-39.2-25,2.4-.2,5.5,1.5,6.9-2.9,14.9,10.3,29.9,19.8,47,25.9-1.2-1.7-2.6-3.1-4.1-4.3-7.1-6-14.2-12-21.3-18.1,1.6-1.1,3.2-2.3,5.2-3.7,12.9,10,25.4,20.3,38.5,31,.3-2,.5-3,.6-4,1.2-8.4,2.4-16.8,3.6-25.2M266.1,463.2c0-.1.1-.2.2-.3-.1,0-.2,0-.2.3M250.8,455.7h.2c0,.1,0-.2-.2,0M260.1,456.7s0,0,0,0Z"/>
  <path class="st12" d="M115.9,115.5c-1.7-1.4-3.4-2.8-4.9-4.8,33.4-18.7,66.5-36.8,99.7-54.8-1.3-.9-2.2-.9-3.1-.9-28.5.8-55.4,8-81,20.2-2.4,1.1-4.6,3-6.3,5-9.6,11.3-19.1,22.8-28.6,34.2-2-.4-3.9-.8-6.2-1.7,5.7-7.9,11.7-15.3,18.1-23.2-1.3,0-2.1-.2-2.4,0-11,8.8-21.9,17.7-33.2,26.5-1.7-.4-3.1-.8-4.5-1.1.7-1.2,1.1-2.6,2-3.7,2.4-3,5-5.8,7.6-8.8,3.2-2.8,6.3-5.5,10-8.4,1-.6,1.5-1.1,1.9-1.6,14.5-12.3,31-21.4,48.3-28.8,28.3-12.1,57.9-17.2,88.6-17,3.9,0,6.3,1.1,8.5,4.6,9.2,14.7,18.8,29.3,28.3,43.8,3.5,5.3,7.2,10.5,11,16.1-.3,3.3-2.5,3.1-5.3,2.9-13-18.8-25.3-37.4-37.8-56.1-7.6,10.9-14.9,21.2-21.9,31.7-5.7,8.4-11.1,17-16.6,25.5-1.5-1.1-3.1-2.1-4.6-3.8,4.1-6.8,8.1-13.1,12.2-19.2,6.1-9.4,12.3-18.7,18.6-28.3.1-.4.1-.7,0-.9-.3.1-.7.2-1.3.4-6.2,3.2-12.2,6.4-18.1,9.6-17.6,9.5-35.1,19.1-52.6,28.6-8.7,4.7-17.6,9.3-26.3,14h0Z"/>
  <path class="st22" d="M782.7,256.6h29.2v-26.3h-54.7v-15.6c1.4,0,2.5-.2,3.7-.2,16.5,0,33.1,0,49.6,0,11.5,0,17.2,5.7,17.4,17.2,0,7.7,0,15.3,0,23,0,11.8-5.8,17.5-17.5,17.5-12.4,0-24.8,0-37.7,0v29.1h-15.4v-44.7h25.4Z"/>
  <path class="st14" d="M282.8,429.6c-2.4,0-4.6-.2-4.7-4,7.2-9,14.4-17.5,21.6-25.8,1.8-2.1,3.1-4,2.5-7.2-.9-5.1,0-10.3,3.9-14,2.6-2.4,3.4-4.7,3.1-8-.2-2.1,0-4.3.4-6.4,1.4-1.2,2.8-2.2,3.2-3.5.7-2.1.7-4.4,1.2-6.2.2,6.4.2,12.5.2,18.6.5.3,1,.6,1.5.9,1.5-.8,3.3-1.4,4.3-2.6,1.8-2,3.1-4.5,4.8-6.5,1.7,1.2,3.3,2.1,4.7,3.3-1.5,2.8-3,5.3-4.3,7.5,1.8,2.9,3.9,5.3,4.9,8,.9,2.9,2.5,3.3,5,3.4,13.8.4,27.5,1,41.3,1.5.7,0,1.4-.3,2.2-.5-.4-7.8-.7-15.4-.7-23,1.8.3,3.4.6,5,1.2.2,3.6.3,6.8.3,10.2.4.1.9.1,1.5-.2,1.3-3.4,2.5-6.4,4.1-9.4,1.9,1.3,3.4,2.6,5.1,4,1.5-2.5,4.1-5.5,8.6-2-8.2,15.6-18.9,29.2-31.7,42-2.2,1.5-3.7,3-5.5,4.2-1.3.9-2.8,1.4-4.2,2.1-.4-1.5-.9-3-1.2-4.8,1.3-1.6,2.5-2.9,3.7-4.2-.3-.3-.6-.5-.8-.8-5.5,3-11,6-16.5,8.6-.8-2.3-1.4-4.2-1.9-6.3,7.5-4.3,14.7-8.5,22-12.6l-.5-1.3c-11.1-.4-22.2-.9-33.2-1.1-1.1,0-2.5,1.9-3.2,3.1-4.1,7.2-12.8,10.3-19.5,6.3-3.4-2.1-4.9-1-7,1.7-6.5,8-13.4,15.8-20.1,23.6h0Z"/>
  <path class="st22" d="M372.4,160.8c10.4-6.7,21.7-4.8,28.3,4.3,7.1,9.8,5.6,24.4-3.3,31.6-8.8,7.2-20.9,6.2-28.4-2.4-8.1-9.1-6.6-24.6,3.4-33.6h0Z"/>
  <path class="st0" d="M34.4,173c1.4,1.3,2.8,2.6,4.4,4.1-2.4,3.5-4.9,6.8-7.8,9.8-2.2,2.3-2.8,4.5-2.2,7.8,1.3,6.9-.4,12.9-6.5,17.4-1.2.9-2.1,3.3-2,4.9.6,8.7,1.5,17.4,2.3,26-1.4,0-2.8,0-4.8-.3-1.5-9.1-2.4-17.8-3.4-26.6-4.4,13.7-6.1,27.5-6.5,41.7-.6,2.5-1.1,4.9-1,7.3,0,2.9-1.2,3.9-3.9,3.6,0-7.1,0-14.1.3-21.8.2-1.4.2-2.1.2-2.9.5-4.4.9-8.8,1.7-13.8.4-1.2.4-1.9.5-2.5.7-4.2,1.4-8.4,2.3-13,.1-1,0-1.5-.2-2-10.2-5.2-9.8-21.8-2.3-27.2,1.9-1.4,4.4-3.1,6.5-3,5.4.3,7.2-2.7,8.4-7,.5-1.6,1.4-3,2.5-4.4,1.8,1.1,3.2,2.1,4.6,3.4-.9,2.1-1.7,3.9-2.5,5.7.4.3.9.6,1.3.9,2.7-2.7,5.5-5.3,8.2-8h0Z"/>
  <path class="st26" d="M2.9,269c2.8,0,4.1-1,4-3.9,0-2.4.4-4.8,1-6.9-.2,27.5,4.3,53.7,14.5,78.8.4,0,.8-.1,1.1-.2-.5-11.7-1-23.4-1.6-35.1,2.6.4,4.2-.5,5-3.1,1.2,16.7,2,33.3,3,49.9.1,2.2,1.6,4.4,2.5,6.5-2.1,1.2-4.1,2.4-6.4,3.9-4.4-9.5-9.3-19-12.7-29.1-6.7-19.6-10.6-39.8-10.4-60.9h0Z"/>
  <path class="st23" d="M431.3,136.9c7.3-2.4,13.2-.5,17.5,5.1,4.5,6,4.7,12.9,1.5,19.5-2.8,5.9-7.8,8.8-14.4,8.6-6.1-.2-11.6-4.5-13.6-10.6-2.5-7.5-.5-15.8,4.9-20.1,1.2-.9,2.6-1.6,4.2-2.6h0Z"/>
  <path class="st16" d="M426,91.3c5.5-7.2,12.9-9.3,19.5-6,7.5,3.8,10.8,12.6,8.2,21.3-2.2,7.3-8.9,11.8-16.5,11.1-9.8-1-16-11.6-13-22.3.4-1.3,1-2.5,1.8-4.1h0Z"/>
  <path class="st1" d="M402.7,368.8c-4.8-3.3-7.3-.3-8.8,2.2-1.7-1.4-3.2-2.7-5.1-4.3,1.2-4.5,2.7-8.6,4.2-12.8,5.9-15.5,11.8-31,17.8-46.5,1.2,1.2,2.4,2.4,4,3.9-5.9,17.2-12.1,34-18.3,50.8.5.3,1,.5,1.5.8,1.6-2.5,3.8-4.9,4.8-7.6,5.8-14.8,11.3-29.7,16.9-44.6,1.6-.1,3.3-.3,5.2-.5-2.5,9.6-4.7,19.6-8.3,29.1-3.9,10-9.1,19.6-14,29.5h0Z"/>
  <path class="st10" d="M27.6,174.1c-1.5-.9-2.9-1.9-4.4-3.3,7.5-18.8,18.7-34.7,31.5-49.6,5.6-6.5,11.9-12.3,18.1-18.5-2.2,2.8-4.8,5.7-7.3,8.7-.9,1.1-1.3,2.4-2,3.7,1.4.4,2.7.8,4.4,1.4-16.5,17.1-29.6,36.6-40.3,57.7h0Z"/>
  <path class="st16" d="M387.1,109.9c-.4,8.4-4.1,13.4-10.2,13.9-6.5.6-11.7-3.3-12.7-9.8-1.3-8,2.2-14.4,8.8-15.9,6.3-1.4,12,2.5,13.8,9.5.1.6.2,1.2.3,2.2h0Z"/>
  <path class="st10" d="M16.8,527.9c0-5.8-.1-11.2.1-16.5,0-1.1,1.3-3.2,2-3.2,1.4,0,3.3.8,4,1.9,1.6,2.4,2.6,5.2,3.8,7.8,1.2,2.5,2.4,4.9,4,8.4,2.6-5.5,4.9-10,6.9-14.7,1.3-3,3-4.4,6.6-3.1v22.9c-2.8,1-4.6.8-4.5-3,.1-2.4,0-4.8-1.1-7.4-1.2,2.5-2.2,5.2-3.8,7.5-1,1.4-2.7,3.1-4.1,3.1-1.4,0-3.2-1.6-4.1-3-1.6-2.3-2.6-5-4.9-7.4v10c-3.6,1.3-5.3.7-5-3.3h0Z"/>
  <path class="st12" d="M416.3,64.8c-2.6,6-6.2,8.6-11.2,8.1-4.6-.4-8.2-3.8-9.3-8.8-1.2-5.7.7-11.1,5-13.7,6.2-3.8,14.2-.2,15.5,7.2.4,2.2,0,4.5,0,7.2h0Z"/>
  <path class="st3" d="M287.3,179.5c1.5,0,3.1,0,5,0,3.7,14.3,7.1,28.5,10.5,42.8,1,4.2,1.8,8.4,2.6,13.1,0,1,.3,1.5.6,2,.2.7.4,1.4.6,2.4-1.5,1-3,1.6-5,1.8-1-2.6-1.5-4.8-2-7-4.1-18.4-8.2-36.8-12.2-55.2h0Z"/>
  <path class="st12" d="M356.4,7.8c2.4-6.2,6.5-8.8,11.6-7.5,5.3,1.3,8.3,6.7,7.4,13-.7,5-4.7,8.4-9.9,8.4s-10-5.5-9.2-13.9h0Z"/>
  <path class="st24" d="M359.8,412.9c.4,1.5.9,3,1.3,4.5,1.4-.7,2.9-1.2,4.2-2.1,1.7-1.2,3.2-2.7,5.2-4.1-9.8,8.8-20,17.6-30.7,26.6-1,.6-1.5,1-2,1.5-1,.7-1.9,1.4-3.5,2.2-1.7.9-2.8,1.8-3.8,2.6,0,0-.2.2-.7.2-1,.5-1.5,1-2.1,1.5,0,0-.3.3-.5.3-2.4-1-4.6-2.1-6.6-3.7,13.2-10.2,26.2-19.9,39.2-29.6h0Z"/>
  <path class="st4" d="M694.3,527.3h9.7v-4.8c-3.3,0-6.3.2-9.3,0-4.5-.3-5.3-1.9-5.3-8.2s1.3-6.2,5.5-6.2c4.2,0,8.5,0,13,0v4.6h-13c-1.2,3.5-.8,5.3,3.1,5.1,1.5,0,3.1,0,4.6,0,5.3.2,6.3,1.2,6.4,6.6,0,6.9-.6,7.6-7.6,7.6h-10.8c-1.6-3.9,0-4.9,3.6-4.6h0Z"/>
  <path class="st4" d="M185.4,528.5c-1.8,1.4-3.4,3-5.2,3.3-3.3.5-6.7.3-10.1,0-1.3-.1-2.4-1.4-3.6-2.1,1.1-.8,2.2-2.2,3.5-2.3,3.3-.3,6.7-.1,9.9-.1,1.3-4.4,1.2-4.6-2.5-4.8-1.4,0-2.8,0-4.1,0-6.3,0-7.4-1.2-7.3-7.6,0-5.9,1-6.8,7.1-6.9,2.8,0,5.5.1,8.3,0,3.2-.2,4.1,1.1,3,4.6h-12.8c-1.3,3.8-.5,5.5,3.2,5.1.3,0,.6,0,.9,0,10.1,0,10.2.2,9.9,10.8h0Z"/>
  <path class="st4" d="M438.5,527.1c-1.7-1.2-3.1-2-4.6-2.8-.7,2.3-1.5,4.7-2.3,7.3-2.6,1-4,.2-4-3.3.2-10.8-1.1-8.8,8.5-9,2,0,3.9,0,6.3,0v-6.6h-14.1c-1.1-3.3-.5-4.8,2.8-4.7,3.7.1,7.4,0,11,0,3.3,0,5.3,1.8,5.3,5.1,0,4.2,1.7,9.2-4.4,11.5,1.4,2.4,2.6,4.5,3.9,6.7-4.6,2.1-6.3-1.1-8.4-4.2h0Z"/>
  <path class="st4" d="M775.4,521.4c-2.8-4-3.5-9.9-.5-11.4,4.6-2.3,10.8-1.5,16.3-1.7.4,0,1,2.3,1.8,4.2h-14c-1.2,3.5-.7,5.4,3.1,5.2,1.2,0,2.4,0,3.7,0,6.5,0,7.6,1.2,7.5,7.9,0,5-1.3,6.2-6.2,6.3-4.1,0-8.2,0-12.3,0-1.2-3.1-.8-4.7,2.7-4.7,3.5,0,7,0,10.3,0,1.5-3.7.3-4.8-3-4.8-3,0-6-.5-9.3-1h0Z"/>
  <path class="st4" d="M393,530.8c-3.7.6-7.3,1.1-10.9,1-2.9-.1-3.4-2.5-2.3-4.7,2.8-5.6,5.5-11.3,9-16.5,1.1-1.6,4.8-2.3,7.2-2,1.4.2,3.2,3.2,3.3,5,.4,5.9.2,11.9.2,17.8-3.4,1.3-4.9.5-4.8-3,.1-5.1,0-10.2,0-15.3l-1.6-.5c-2.5,4.6-5,9.2-7.4,13.5,2.2,3,7.6-1.6,7.3,4.7h0Z"/>
  <path class="st10" d="M261.8,508c7.4.1,8.1.9,8.1,7.6,0,3.8,0,7.6,0,11.5,0,3.2-1.5,4.8-4.8,4.8h-.5c-15.9,0-14.2,1.5-14.3-13.7,0-6.8,3.8-10.2,11.4-10.2M255.2,526.2c3.2.5,6.5.9,10,1.4v-14.8h-10.1c0,4.4,0,8.5.2,13.4Z"/>
  <path class="st4" d="M129.5,515.2c-2.1,3.9-4,7.5-6.3,11.9,2.5.1,4.3,0,5.9.4.8.2,2,1.5,2,2.2s-1.2,2-2,2.1c-2.1.3-4.3.1-6.4.1-5.2,0-6.4-1.8-4.1-6.4,2.3-4.6,4.9-9.1,7.2-13.8,1.7-3.5,4.6-4.3,8-3.5,3.4.8,3.8,3.6,3.8,6.5,0,4.6-.1,9.2,0,13.7.1,3.3-1.3,4.1-4.8,2.9v-18.3c-.4-.2-.8-.3-1.1-.5-.7.8-1.4,1.5-2.2,2.6h0Z"/>
  <path class="st4" d="M656.2,527.3c3,.4,7.3-1.5,5.6,4.6-4.2,0-8.5.4-12.7-.2-1.6-.2-3.9-2.6-4.1-4.2-.5-4.8-.2-9.8-.2-14.7,0-3.2,1.8-4.7,4.9-4.8,4,0,7.9,0,12.3,0,.1,1.5.2,2.7.3,4.5h-12.4v5.2c2.3,0,4.4-.2,6.5,0,1,.2,1.7,1.4,2.6,2.2-.8.8-1.6,2.1-2.5,2.3-1.9.4-4,.1-6.5.1-.1,1.4-.2,2.8-.4,4.8h6.7,0Z"/>
  <path class="st4" d="M348.2,512.7c-4.5,0-8.6,0-12.7,0-1.2-3.3-.6-4.8,2.8-4.7,3.7.1,7.3,0,11,0,3.6,0,5.3,1.9,5.4,5.4,0,1.4,0,2.8,0,4.1-.1,5.3-1.2,6.4-6.5,6.5h-.9c-4.8,0-7.5,2.5-7.9,7.4-2.7,1-4.5.9-4.4-2.9.2-11.1-1.1-9,8.7-9.2,1.8,0,3.6,0,6.5,0-.6-2.5-1-4.5-1.9-6.5h0Z"/>
  <path class="st10" d="M77.6,531.2c-1.4.5-2.6.6-4,.7v-12.6h14.4v-6.7h-14.4v-4.6c5.1,0,10.1-.4,14.8.2,1.6.2,3.4,2.6,4.2,4.4.7,1.5,0,3.6.2,5.4.2,4-1.6,6-5.7,5.9-2.9,0-5.7,0-8.9,0-.2,2.7-.3,4.8-.7,7.2h0Z"/>
  <path class="st4" d="M559.4,521.7v5.6c3.6,0,6.8-.2,9.9.1,1.1.1,2,1.5,3,2.3-1,.7-2,1.9-3.2,2.1-1.9.4-4,0-5.9,0-8.3,0-8.6-.4-8.6-8.9s-.3-6.8.2-10c.2-1.7,1.7-4.3,2.9-4.5,4.3-.6,8.8-.4,13.2-.3.5,0,1.5,1.7,1.3,2.3-.3.8-1.4,1.9-2.3,2-3.3.2-6.6,0-10.5,0v9.1h0Z"/>
  <path class="st4" d="M868.6,510.9c2.4-1.2,4.6-2.4,7-2.8,2.5-.4,5.2-.3,7.8,0,.9.1,1.7,1.5,2.5,2.3-.9.8-1.7,2.1-2.7,2.1-3.2.3-6.4,0-9.9,0v14.7c3.1,0,6.2-.2,9.3,0,1.1,0,2.1,1.4,3.2,2.1-1.1.8-2.2,2.2-3.4,2.3-3,.3-6.1,0-9.2.1-3.5,0-5.1-1.8-5-5.1,0-5.2.1-10.4.3-16h0Z"/>
  <path class="st23" d="M835.7,509.3c.4-.7.8-1.1,1.1-1.2.9-.1,1.8,0,2.7,0,2.4,10.5,1.2,13.4-6.7,14.7v8.4c-2.8.4-4.4-2.3-4.9-8.1-7.8-2.3-8.3-3.4-6.7-14.8,2.2-.5,4.2-1.1,4.1,2.5,0,2.1,0,4.2,0,6.6h10.2c0-2.6,0-5.2,0-8.1h0Z"/>
  <path class="st4" d="M599.9,521.6v-13c3.1-1.2,4.8-1,4.8,2.8-.1,5,0,10.1,0,15.8,3.4,0,6.6-.2,9.7,0,1.1,0,2.1,1.4,3.1,2.2-1,.8-1.9,1.9-3,2.2-1.4.4-3,0-4.6,0-6.6,0-10-3.4-10-10.3h0Z"/>
  <path class="st23" d="M493.7,509.9c-.8,1.2-1.5,2.3-2.5,2.7-1.4.4-3,.2-4.8.3v18.4c-3.4,1.3-4.9.8-4.7-2.8.2-5,0-10,0-15.5-2.5-.1-4.6-.3-7-.4-1-3.2-.2-4.6,3.2-4.5,4.1.2,8.2,0,12.4.1,1.1,0,2.3.9,3.4,1.8h0Z"/>
  <path class="st10" d="M913.6,520.8v-12c3-1.3,4.7-1.1,4.7,2.7-.1,5,0,10.1,0,15.8,3.2,0,6.2.1,9.2,0,3.1-.2,4.4.9,3.2,4.6-4.3,0-8.9.3-13.4-.2-1.3-.2-2.9-2.4-3.4-4-.6-2-.2-4.2-.2-6.8h0Z"/>
  <path class="st16" d="M525.4,531.2c-2.9,1.1-4.3.4-4.2-2.7.2-5.7.1-11.3,0-17,0-3.2,1.2-4.2,4.4-3,0,7.5,0,14.9-.2,22.7Z"/>
  <path class="st3" d="M222.2,519.2c-.9,2.9-7.2,4.7-8.5,2.5-.5-.8.6-3.8.9-3.8,2.6,0,5.1.6,7.7,1.3h0Z"/>
  <path class="st3" d="M298.4,518.6c2.4-.5,4.7-1,6.9-.7.7.1,1.1,2.3,1.7,3.6-2.3.3-4.7.9-7,.8-.6,0-1.2-2.2-1.6-3.7h0Z"/>
  <path class="st3" d="M743.2,522.5c-1.3,0-2.3.3-3.1,0-1.2-.6-2.2-1.7-3.3-2.5,1-.7,2-1.9,3.2-2.1,1.6-.4,3.3,0,5.2,0,.5,2.1,1.9,4.2-2,4.8h0Z"/>
  <path class="st2" d="M330.8,444.1c.8-.8,1.9-1.6,3.2-2.5-.8.8-1.9,1.6-3.2,2.5Z"/>
  <path class="st2" d="M72.2,420.7c.8.4,1.7,1.1,2.7,2-.8-.4-1.7-1.1-2.7-2Z"/>
  <path class="st2" d="M78.5,426.2c.8.4,1.8,1,2.8,2-.8-.4-1.8-1-2.8-2Z"/>
  <path class="st26" d="M3.3,244.2c.2.6.2,1.4,0,2.3-.2-.6-.2-1.4,0-2.3Z"/>
  <path class="st25" d="M306,237.2c-.3-.3-.5-.8-.6-1.4.3.3.5.7.6,1.4Z"/>
  <path class="st26" d="M5.5,227.8c.1.5,0,1.1-.2,2-.2-.5,0-1.2.2-2Z"/>
  <path class="st26" d="M7.7,212.8c.2.3.4.8.4,1.4-.3-.3-.4-.8-.4-1.4Z"/>
  <path class="st3" d="M292.2,176.6c-.3-.3-.6-.8-.7-1.4.4.3.5.8.7,1.4Z"/>
  <path class="st3" d="M290.3,168.3c-.3-.3-.5-.8-.6-1.4.3.3.5.8.6,1.4Z"/>
  <path class="st2" d="M338.1,439.3c.2-.4.7-.9,1.5-1.4-.2.4-.7.9-1.5,1.4Z"/>
  <path class="st2" d="M328,445.9c.3-.5.8-1,1.6-1.4-.2.5-.8.9-1.6,1.4Z"/>
  <path class="st10" d="M84.8,92.6c-.2.4-.7.9-1.4,1.5.2-.4.7-.9,1.4-1.5Z"/>
  <path class="st8" d="M155.3,362.5c.2,1,.3,2.1.7,3.1,1.4,3.3.7,5.4-2.3,7.7-6.4,4.9-7.7,12.1-8,20.1-7.3.4-14.4.8-21.5,1.1-13,.6-25.9,1.1-38.9,1.8-2.9.2-4-1.1-5.1-3.5-5.4-11.8-10.8-23.6-16.5-36-4.2-9.3-8.1-18.1-12.2-26.9-4.5-9.8-9.2-19.6-13.8-29.4-.8-1.9-1.6-3.8-2.5-6.2-.6-1-1.1-1.5-1.5-1.9-1.4-3.5-2.8-6.9-4.3-11,0-1.1,0-1.5,0-2,3.9-.2,7.8-.3,12.4-.4,3.2-.1,5.7-.4,8.2-.6,3.4,0,6.9-.2,11.1-.3,3.9-.2,6.9-.5,10-.7,3.5-.1,6.9-.2,11.1-.3,3.5-.2,6.3-.4,9.1-.6,3.5-.1,6.9-.2,11.1-.3,3.5-.2,6.3-.4,9.1-.6,4.7-.7,7.5,1,10,5.4,1.6,2.8,5.5,4.9,8.8,5.7,3.2.8,4.8,2,5.4,5.6.4,1,.6,1.5.8,1.9.6,2.5,1.2,5.1,2,8.3,5.6,20.4,11.1,40.1,16.6,59.8h0Z"/>
  <path class="st19" d="M190.6,364.9c-.5.3-1.1.6-1.5,1-4.6,5-9.1,9.4-16.2,3.6-1.1-.9-3.2-1-4.9-.9-4.2.3-6.1-1.6-6.8-6.2-1.9-6.4-3.7-12.1-5.3-17.9-3.6-13-7.2-26.1-10.8-39.2-1.4-4.9-2.8-9.8-4.3-14.7-.9-3-.9-5.4,1.8-7.6,1.7-1.4,3-3.6,3.7-5.6.8-2.4,2-3.3,4.5-3.5,46.9-2.4,93.9-4.8,140.8-7.3,1.4,0,2.7,0,4.9,1-13.2,12.1-26.3,24.2-39.9,36.6-.9.9-1.4,1.5-1.9,2-.3,0-.5.2-1,.7-12.4,11.2-24.4,22.1-36.3,33-9,8.2-17.9,16.6-26.9,24.9h0Z"/>
  <path class="st8" d="M251.8,432.1c-3.5,10.8-7.1,21.6-10.9,33.2-12.3-12.9-24-25.2-36.1-37.7-6.5-6.8-12.6-13.5-19-20.1-2-2.1-2.1-3.9-.8-6.5,2.8-5.6,3-11.6,1.2-17.4-1.1-3.5-.6-5.7,2.3-7.8,1.7-1.2,3.2-2.9,5.2-4.7,12.9-11.7,25.3-22.9,37.7-34.2,9.1-8.3,18.1-16.7,27.2-25.1,12.8-11.5,25.6-23.1,38.5-34.6,1.1-1,2.2-1.9,4.1-2.4-3.1,10.3-6.3,20.5-9.6,31.4-7.1,22.5-13.9,44.4-21,66.6-6.4,19.9-12.6,39.6-18.8,59.3h0Z"/>
  <path class="st19" d="M187.1,176.7c1.2,1,2.4,1.9,4,3.2,17.2,12.7,33.8,25,50.6,37.3,12.7,9.3,25.5,18.4,38.2,27.6,5.4,4.2,10.7,8.3,16.1,12.5l-.2,1.1c-3.7.3-7.4.7-11.1.9-44.1,2.3-88.3,4.5-132.4,6.9-3.2.2-5.8,0-6.7-3.7-.1-.4-.4-.9-.7-1.2-7.1-4.5-4.4-10.6-2.9-16.5.6-2.5,1.1-5.1,1.8-8.2.9-4.8,1.4-9.1,2.3-13.2,3.4-14.6,6.9-29.2,10.4-43.9,1.5-6.8,3-13.6,4.7-21.3,7,5,13.2,9.4,19.8,14.2,1.1.8,1.7,1.2,2.4,1.6.4.3.7.7,1.4,1.3,1,.7,1.6,1,2.3,1.4h0Z"/>
  <path class="st9" d="M287.1,179.2c4.2,18.7,8.3,37.1,12.4,55.5.5,2.2,1,4.4,1.7,7,.7,3.6,1.3,6.8,2.2,11.6-7.2-5.2-13.2-9.5-19.7-14.2-14.5-10.7-28.5-21.1-42.6-31.4-13.7-10-27.5-19.9-41.2-29.9-7.3-5.3-14.6-10.5-21.8-15.8-2.6-1.9-5.1-4.2-8.4-6.9,2.1-.6,3.3-1,4.5-1.2,28.4-5.2,56.9-10.3,85.3-15.5,3.2-.6,5.4-.5,7.7,2.7,2,2.7,5.6,4.9,8.9,5.8,3.2.9,4.1,2.3,4.7,5.1,2,9.1,4.1,18.1,6.3,27.4h0Z"/>
  <path class="st9" d="M55.5,184.1c4.4-13.6,8.9-27.1,13.3-40.7.4,0,.8,0,1.2,0,5.3,11.2,10.6,22.5,16.1,34.3.9,1.8,1.6,3,2.3,4.3.2.6.4,1.3.8,2.4,9.8,21.1,19.5,41.7,29.1,62.2.4,1.1.6,2.5,1.3,3.4,5,5.9,2,11.2-1,16.5-.5.8-1.9,1.5-3,1.5-28.3,1.3-56.6,2.6-84.9,3.8-.6,0-1.2-.2-2.5-.5,2.8-9,5.5-17.9,8.4-27.3,6.4-20.4,12.7-40.2,18.9-59.9h0Z"/>
  <path class="st9" d="M138.4,152.1c.7.2,1.4.4,2.6.8,1,.1,1.5.1,2,0,1,.3,2,.5,3.6.9,1.4.2,2.1.2,2.9.2.7.2,1.4.4,2.6.8,1,.1,1.5,0,2,0,.4,1.4,1.4,2.9,1.1,4.1-.8,4.8-1.9,9.5-3.1,14.8-.2,1.1-.3,1.5-.4,2-.1.4-.2.8-.5,1.8-.8,3.4-1.6,6.2-2.2,9.1-3.6,16.3-7.1,32.5-10.7,48.8-1.4,5.5-2.6,10.9-4.1,16.3-.3,1.2-1.7,3-2.6,2.9-1.3,0-2.9-1.2-3.7-2.4-1.4-2-2.2-4.3-3.5-7.1-4.9-10.7-9.6-20.9-14.3-31-5.1-10.9-10.4-21.8-15.6-32.7-5.2-11.4-10.3-22.8-15.5-34.2-.7-1.6-1.5-3.3-2.8-6.1,15.3,2.7,29.7,5.2,44.6,7.9,1,.1,1.5,0,2,0,2.5.5,5,1.1,8.1,1.7,1,.1,1.5.1,2,0,1,.3,2,.5,3.5.9,1.1.1,1.5.1,2,0h0Z"/>
  <path class="st7" d="M309.2,364.3c0,2.1-.2,4.3,0,6.4.3,3.2-.6,5.6-3.1,8-4,3.7-4.9,8.9-3.9,14,.6,3.2-.6,5-2.5,7.2-7.2,8.3-14.4,16.8-21.7,25.4-8.6,9.9-17.2,19.6-25.7,29.2-.4-.1-.8-.3-1.1-.5,2-6.6,4-13.3,6.2-20.6,1.1-3.4,2-6.1,2.9-8.9,5.3-17,10.6-34,16.1-51.3,7-21.8,13.8-43.3,20.6-64.8,2.9-8.8,5.7-17.5,8.9-26.6.4-.3.6-.2.7-.2.3,7.7.6,15.4.9,23.9.6,20.2,1.2,39.5,1.9,58.8h0Z"/>
  <path class="st9" d="M324.6,364.7c-1.5,2.3-2.8,4.8-4.6,6.8-1,1.2-2.9,1.8-4.3,2.6-.5-.3-1-.6-1.5-.9,0-6.1,0-12.2,0-19-.5-16.4-1-32.1-1.5-47.7-.2-11.1-.5-22.3-.7-33.5,0-1.6,0-3.3,0-5.9,19.8,7.5,38.8,14.7,58.4,22.1-3.7,6.3-7.2,12-10.9,18.3-2.9,4.6-5.5,8.7-8.1,12.9-8.9,14.7-17.8,29.5-26.7,44.2h0Z"/>
  <path class="st7" d="M377.6,365.2c.4,7.6.7,15.2,1.1,23-.8.2-1.5.5-2.2.5-13.8-.5-27.5-1.1-41.3-1.5-2.5,0-4.1-.5-5-3.4-.9-2.8-3-5.2-4.9-8,1.3-2.2,2.7-4.7,4.5-7.7,3.9-6.2,7.5-11.9,10.9-17.6,7.8-12.8,15.5-25.6,23.2-38.4,2.8-4.4,5.5-8.8,8.2-13.1.4.1.7.2,1.1.3.4,4.6.8,9.1,1.2,14.5,1.1,17.7,2.1,34.6,3.1,51.5h0Z"/>
  <path class="st5" d="M410.9,307.2c-6,15.8-11.9,31.3-17.8,46.8-1.6,4.1-3,8.3-4.6,12.8-1.2,3.4-2.4,6.4-4.1,9.6-.6.2-.9.2-1.1.1,0-3.2-.2-6.4-.3-10.4-.2-4-.2-7.2-.5-10.4-.9-14-1.9-28-2.9-42,0-2.5,0-5,0-8.1-.2-1.7-.4-2.7-.5-3.7.1-3.9-1.1-8.8.8-11.5,1.9-2.7,6.9-3.3,10.6-4.7,9.1-3.5,18.3-6.9,27.5-10.2,1.1-.4,2.3-.6,5-1.4-4.3,11.7-8.1,22.2-12,33.1h0Z"/>
  <path class="st6" d="M22.7,243.3c-.9-9-1.9-17.7-2.4-26.4-.1-1.6.8-4,2-4.9,6-4.5,7.8-10.5,6.5-17.4-.6-3.3,0-5.4,2.2-7.8,2.8-3,5.4-6.3,8.1-9.7,6.2-7.4,12.3-14.5,18.4-21.6.3.1.6.3.9.4-2.8,8.9-5.5,17.7-8.5,27.2-6.4,20.3-12.6,40-18.8,59.7-1.9,5.4-3.8,10.7-5.6,16.1-.3,0-.7,0-1-.1-.5-5-1.1-10.1-1.8-15.5h0Z"/>
  <path class="st20" d="M32.8,355.2c-1.1-2.3-2.6-4.4-2.8-6.6-1-16.6-1.8-33.2-2.8-50.2-.1-1.3-.1-2.4,0-3.8.4-.5.6-.6.8-.7,1.1,2.4,2.3,4.9,3.6,7.9,1.8,4.1,3.3,7.6,4.9,11,7,15,14,30,20.9,45,4,9,7.9,18,11.9,27.1-.3.2-.6.5-.9.7-11.8-10.1-23.6-20.2-35.7-30.4h0Z"/>
  <path class="st17" d="M22,301.4c.6,12.1,1.1,23.8,1.6,35.5-.4,0-.8.1-1.1.2-10.2-25.1-14.7-51.4-14.2-79,0-14.5,1.8-28.3,6.2-42,.9,8.8,1.9,17.5,3,26.6,1.3,13.4,2.4,26.5,3.5,39.5.5,6.2.7,12.5,1.1,19.2h0Z"/>
  <path class="st3" d="M199.7,178.1c13.9,9.7,27.7,19.6,41.4,29.6,14.1,10.3,28.1,20.7,42.3,31.4-.9,1.9-2,3.6-3.3,5.6-12.9-9-25.7-18.1-38.4-27.4-16.8-12.3-33.4-24.6-50.3-37.2,2.7-.5,6,2.5,8.4-1.9h0Z"/>
  <path class="st1" d="M258.3,311.9c-8.7,8.4-17.7,16.8-26.8,25.1-12.4,11.3-24.8,22.5-37.5,34-1.2-1.7-2.2-3.5-3.2-5.6,8.9-8.6,17.8-17,26.8-25.2,11.9-11,24-21.8,36.3-32.8,1.6,1.5,2.9,3.1,4.5,4.7h0Z"/>
  <path class="st3" d="M94.3,182.1c5.3,10.5,10.6,21.4,15.7,32.3,4.8,10.1,9.4,20.3,14.1,30.8-1.7.7-3.4,1.1-5.5,1.4-10-20.6-19.6-41.1-29.3-62.1,1.6-.9,3.2-1.5,4.9-2.4Z"/>
  <path class="st1" d="M363.5,312c-7.4,12.9-15.1,25.7-22.8,38.5-3.5,5.8-7.1,11.4-10.9,17.3-1.8-.7-3.3-1.6-5-2.8,8.7-15.1,17.6-29.8,26.5-44.6,2.5-4.2,5.2-8.3,8-12.6,1.5,1.2,2.6,2.7,4.2,4.1h0Z"/>
  <path class="st13" d="M296.6,308.3c-6.4,21.6-13.2,43.1-20.6,64.9-2.1,0-3.7-.3-5.3-.6,6.9-21.9,13.7-43.8,20.8-66,1.7.4,3.2,1,5.1,1.7h0Z"/>
  <path class="st26" d="M57.9,357.9c-7.3-15-14.3-30-21.3-45-1.6-3.5-3.1-7-4.7-10.8,1.7-.6,3.4-.9,5.4-1.3,5,9.6,9.6,19.4,14.2,29.2,4,8.7,8,17.5,12,26.6-1.7.6-3.5.9-5.6,1.2h0Z"/>
  <path class="st3" d="M31.5,242.9c5.8-19.8,12-39.4,18.4-59.4,1.8,0,3.3.3,5.2.6-5.9,19.8-12.1,39.5-18.5,59.6-1.7,0-3.2-.4-5.1-.8h0Z"/>
  <path class="st13" d="M144.8,305.4c4,13,7.5,26.1,11.1,39.2,1.6,5.8,3.4,11.5,5.1,17.5-1.7.3-3.4.3-5.4.3-5.9-19.7-11.4-39.4-16.9-59.4,1.9.6,3.8,1.5,6.1,2.4h0Z"/>
  <path class="st3" d="M138.6,235.7c3.2-16.4,6.8-32.7,10.4-48.9.6-2.8,1.3-5.6,2.2-8.8,1.7.3,3.2.9,5,1.5-3.2,14.6-6.7,29.2-10.1,43.9-1,4.1-1.5,8.4-2.3,12.9-1.7,0-3.3-.2-5.1-.5h0Z"/>
  <path class="st13" d="M312.3,306.4c.8,15.6,1.2,31.3,1.6,47.4-.4,2.6-.4,4.9-1.1,7-.5,1.3-1.9,2.4-3.2,3.5-1-19.3-1.6-38.6-2.2-58.4,1.6-.1,3.1.2,4.9.5h0Z"/>
  <path class="st1" d="M379.3,313.7c1.3,14,2.3,28,3.2,42,.2,3.2.3,6.4.3,10-1.6.1-3.1-.2-4.9-.5-1.4-16.9-2.4-33.8-3.4-51.1,1.5-.4,3-.4,4.8-.4h0Z"/>
  <path class="st18" d="M419.8,310.4c-5.6,15.3-11.2,30.2-16.9,45-1.1,2.8-3.2,5.1-4.8,7.6-.5-.3-1-.5-1.5-.8,6.2-16.8,12.5-33.6,18.7-50.8,1.9-5.6,3.8-11,5.7-16.3.5.1.9.2,1.3.4-.8,4.8-1.6,9.6-2.5,14.9h0Z"/>
  <path class="st2" d="M70.8,277.5c-2.8.4-5.8.6-9.3.7,2.7-.4,5.9-.7,9.3-.7Z"/>
  <path class="st2" d="M91,276.5c-2.5.4-5.3.6-8.5.7,2.5-.4,5.3-.7,8.5-.7Z"/>
  <path class="st2" d="M111.3,275.6c-2.5.4-5.3.6-8.5.7,2.5-.4,5.3-.7,8.5-.7Z"/>
  <path class="st2" d="M49.7,278.4c-2.2.4-4.7.6-7.6.7,2.2-.4,4.8-.6,7.6-.7Z"/>
  <path class="st1" d="M378.9,302c.4.8.5,1.8.6,3.2-.3-.8-.6-1.9-.6-3.2Z"/>
  <path class="st26" d="M28,293.7c-.2.3-.4.4-.8.5-.4-.6-.5-1.3-.6-1.9.5.4.9.7,1.4,1.4h0Z"/>
  <path class="st13" d="M136.8,294.3c-.4-.3-.6-.7-.8-1.4.3.2.7.8.8,1.4Z"/>
  <path class="st2" d="M29.1,279.7c.1.4.1.8,0,1.6-.1-.3-.1-.9,0-1.6Z"/>
  <path class="st1" d="M255.2,306.3c.2-.5.7-1.1,1.4-1.7-.2.5-.7,1.1-1.4,1.7Z"/>
  <path class="st2" d="M33.6,292.8c.5.2.9.7,1.3,1.4-.5-.2-.9-.7-1.3-1.4Z"/>
  <path class="st2" d="M306.5,281.4c-.2.2-.3.1-.7,0,0-.3.1-.6.3-1,.1.2.2.5.3.9Z"/>
  <path class="st21" d="M187.9,115.5c5.6-8.8,11-17.4,16.7-25.8,7.1-10.5,14.4-20.8,21.9-31.7,12.5,18.8,24.8,37.4,37.4,56.1,4.9,5.4-.1,10.1-.7,15,0,.6-2,1.1-3.2,1.3-29.4,5.4-58.9,10.8-88.4,16.1-1,.2-2.1,0-4.1,0,7-10.6,13.6-20.6,20.2-31h0Z"/>
  <path class="st5" d="M115.7,115.8c9-4.9,17.8-9.5,26.5-14.2,17.6-9.5,35.1-19.1,52.6-28.6,5.9-3.2,11.9-6.4,18.3-9.4.6.2.7.4.9.5-6.1,9.4-12.3,18.7-18.4,28.1-4.1,6.2-8.1,12.4-12.2,18.9-7.5,11.3-15,22.3-22.3,33.4-1.9,2.9-3.7,3.7-7,3.1-22.6-4.2-45.1-8.2-67.7-12.2-.9-.2-1.7-.5-3.9-1.1,11.7-6.4,22.4-12.3,33.3-18.5h0Z"/>
  <path class="st11" d="M91.6,114.7c9.6-11.7,19-23.2,28.7-34.5,1.7-2,4-3.9,6.3-5,25.6-12.2,52.5-19.4,81-20.2.9,0,1.8,0,3.1.9-33.2,18.1-66.3,36.2-99.7,54.5-8.2,4.3-16.1,8.5-24.1,12.6-.3-.3-.5-.7-.8-1,1.8-2.3,3.6-4.7,5.4-7.3h0Z"/>
  <path class="st17" d="M27.5,174.4c10.8-21.5,23.9-40.9,40.8-58,11-9.1,21.9-18,32.9-26.8.4-.3,1.2,0,2.4,0-6.3,7.8-12.3,15.3-18.5,23-11.6,14.1-23,28-34.6,41.7-5.2,6.1-10.6,12.1-16,18.4-2.8,2.9-5.6,5.6-8.3,8.3-.4-.3-.9-.6-1.3-.9.8-1.8,1.6-3.6,2.5-5.7h0Z"/>
  <path class="st3" d="M88.5,181.7c-.8-.9-1.5-2.1-2.2-3.7.7.9,1.5,2.1,2.2,3.7Z"/>
  <path class="st3" d="M149.3,153.9c-.6.2-1.4.2-2.4,0,.6-.2,1.4-.2,2.4,0Z"/>
  <path class="st3" d="M153.9,154.7c-.4.2-.9.2-1.5,0,.4-.2.9-.2,1.5,0Z"/>
  <path class="st3" d="M187,176.4c-.6,0-1.2-.4-2-1.1.5,0,1.2.4,2,1.1Z"/>
  <path class="st3" d="M151.8,175.8c-.1-.4,0-.9.2-1.6.1.4,0,1-.2,1.6Z"/>
  <path class="st3" d="M183.3,173.7c-.6,0-1.2-.4-2.1-1.1.6,0,1.3.4,2.1,1.1Z"/>
  <path class="st3" d="M122.6,149.1c-.4.2-.9.2-1.5,0,.3-.2.9-.2,1.5,0Z"/>
  <path class="st3" d="M132.7,151c-.4.2-.9.2-1.5,0,.4-.2.9-.2,1.5,0Z"/>
  <path class="st3" d="M138.3,151.9c-.4.2-.9.2-1.5,0,.4-.2.9-.2,1.5,0Z"/>
  <path class="st3" d="M142.9,152.8c-.4.2-.9.2-1.5,0,.4-.2.9-.2,1.5,0Z"/>
  <path class="st11" d="M85.7,122.9c0,.2,0,.3-.1.3s-.2-.2-.2-.2c0,0,.2-.2.4,0h0Z"/>
  <path class="st7" d="M196.8,428.5c9.8,10.3,19.2,20.5,28.7,30.7,2.6,2.8,5.1,5.5,8.2,8.9-1.7.5-2.6.9-3.6.9-21.7,1.2-43.1-.7-64.3-5.8-3.8-.9-5.3-2.3-4.6-6.6,1.4-8.4,2.2-17,3.3-25.9.7-5.1,1.2-9.9,2.1-14.6.3-1.3,1.8-2.8,3.1-3.4,2.9-1.3,6-2.1,8.9-3.1,5.9,6.2,11.9,12.4,18.1,18.7h0Z"/>
  <path class="st7" d="M159.5,428.3c-1.2,8.8-2.4,17.2-3.6,25.6-.1,1-.3,2-.6,4-13.1-10.8-25.6-21-38.4-31.4-7.7-6.2-15.1-12.3-22.4-18.4-1.1-.9-2-2.1-3.8-4,3.6-.4,6.2-.7,8.9-.8,14.8-.7,29.6-1.4,44.4-2.2,2.9-.2,4.5.8,6.4,3,2.9,3.4,6.6,6,10.7,9.6-.1,1.8-.4,4.8-.9,8.4-.2,1.1-.2,1.6-.3,2.1-.1,1.3-.3,2.5-.4,4.2h0Z"/>
  <path class="st17" d="M111.3,430.4c7.4,6.1,14.5,12.1,21.6,18.2,1.5,1.3,2.9,2.6,4.1,4.3-17.1-6-32.2-15.6-47-26.2-5.1-4-10.3-7.6-14.7-12-12.4-12.2-23.8-25.3-33.4-39.8.3-.4.5-.7.8-1.1,2.1,1.5,4.3,2.8,6.2,4.5,12.2,10.2,24.2,20.6,36.4,30.8,8.5,7.1,17.1,14.1,25.9,21.3h0Z"/>
  <path class="st2" d="M160.1,424c-.2-.4-.2-.9,0-1.6.2.4.2,1,0,1.6Z"/>
  <path class="st20" d="M282.6,429.9c6.8-8.1,13.7-15.9,20.2-23.9,2.2-2.6,3.6-3.8,7-1.7,6.8,4.1,15.4,1,19.5-6.3.7-1.3,2.1-3.1,3.2-3.1,11.1.2,22.2.7,33.2,1.1l.5,1.3c-7.3,4.1-14.5,8.2-22.3,12.6-19.9,11.3-39.3,22.4-58.6,33.4-7.4,4-14.8,8-22.6,11.9-.5-.1-.8-.4-.8-.4,5-6,10-12.1,15-18.1,1.8-2.2,3.7-4.4,5.7-6.9h0Z"/>
  <path class="st17" d="M360,412.6c-13.2,9.9-26.2,19.6-39.4,29.5-14.5,6.3-28.9,12.4-43.2,18.4-2.8,1.1-5.8,1.6-8.7,2.4-.2-.5-.4-.9-.6-1.4,7.1-4.1,14.1-8.3,21.7-12.8,6.4-3.7,12.2-7.2,18.1-10.5,12.8-7.3,25.7-14.5,38.6-21.8,5.5-3,11-6,16.5-9,.3.3.6.5.8.8-1.2,1.3-2.4,2.7-3.7,4.2h0Z"/>
  <path class="st24" d="M346.3,416.2c-12.8,7.6-25.7,14.9-38.5,22.2-5.9,3.4-11.8,6.8-18,10.3-1.6-1.5-2.9-3.1-4.2-5,19.2-11.3,38.6-22.4,58.3-33.5,1,1.8,1.7,3.7,2.4,6h0Z"/>
  <path class="st14" d="M270.5,372.9c1.8,0,3.4.3,5.3.6-5,17-10.2,34-15.5,51.1-.9,2.8-1.8,5.5-2.9,8.5-1.8,0-3.3-.4-5.3-.8,5.8-19.8,12-39.5,18.4-59.4h0Z"/>
  <path class="st17" d="M266,463.1c0-.1.2-.2.3-.2,0,.1-.1.2-.3.2Z"/>
  <path class="st20" d="M262.5,455.3c-.2,0-.5,0-.6-.3.2-.2.5.1.6.3Z"/>
  <path class="st7" d="M250.9,455.6c.1,0,.1.2.1.2,0,0-.2-.1-.1-.2Z"/>
  <path class="st5" d="M213.5,63.5c.1-.3.5-.4.8-.5,0,.2,0,.5,0,.9-.3,0-.4,0-.7-.4h0Z"/>
  <path class="st1" d="M383.2,376.7c.3-.1.5,0,1.1,0-.2.1-.7.1-1.1,0Z"/>
</svg>